<svg width="1940" height="343" viewBox="0 0 1940 343" fill="none" xmlns="http://www.w3.org/2000/svg">
<g clip-path="url(#clip0_443_857)">
<rect width="1940" height="343" fill="white"/>
<rect x="-3.8999" width="80.3148" height="20.5514" rx="3" fill="#E14646" fill-opacity="0.3"/>
<path d="M3.75297 14V3.81818H7.19332C7.98877 3.81818 8.64171 3.95407 9.15212 4.22585C9.66254 4.49432 10.0404 4.86387 10.2856 5.33452C10.5309 5.80516 10.6535 6.34044 10.6535 6.94034C10.6535 7.54025 10.5309 8.07221 10.2856 8.53622C10.0404 9.00024 9.6642 9.36482 9.15709 9.62997C8.64999 9.89181 8.00203 10.0227 7.2132 10.0227H4.42911V8.90909H7.17343C7.71699 8.90909 8.15449 8.82955 8.48593 8.67045C8.82068 8.51136 9.06263 8.28598 9.21178 7.99432C9.36424 7.69934 9.44047 7.34801 9.44047 6.94034C9.44047 6.53267 9.36424 6.17637 9.21178 5.87145C9.05932 5.56652 8.81571 5.3312 8.48096 5.16548C8.1462 4.99645 7.70373 4.91193 7.15354 4.91193H4.98593V14H3.75297ZM8.54559 9.42614L11.0513 14H9.61945L7.15354 9.42614H8.54559ZM15.6686 14.1591C14.9328 14.1591 14.2981 13.9967 13.7645 13.6719C13.2342 13.3438 12.8249 12.8864 12.5365 12.2997C12.2515 11.7098 12.109 11.0237 12.109 10.2415C12.109 9.45928 12.2515 8.76989 12.5365 8.1733C12.8249 7.57339 13.2259 7.10606 13.7397 6.77131C14.2567 6.43324 14.8599 6.2642 15.5493 6.2642C15.947 6.2642 16.3398 6.33049 16.7276 6.46307C17.1154 6.59564 17.4684 6.81108 17.7865 7.10938C18.1047 7.40436 18.3583 7.79545 18.5472 8.28267C18.7361 8.76989 18.8306 9.36979 18.8306 10.0824V10.5795H12.9442V9.56534H17.6374C17.6374 9.13447 17.5512 8.75 17.3789 8.41193C17.2098 8.07386 16.9679 7.80705 16.653 7.61151C16.3415 7.41596 15.9736 7.31818 15.5493 7.31818C15.082 7.31818 14.6776 7.43419 14.3362 7.66619C13.9982 7.89489 13.738 8.19318 13.5557 8.56108C13.3734 8.92898 13.2823 9.32339 13.2823 9.74432V10.4205C13.2823 10.9972 13.3817 11.486 13.5806 11.8871C13.7827 12.2848 14.0628 12.5881 14.4208 12.7969C14.7787 13.0024 15.1947 13.1051 15.6686 13.1051C15.9769 13.1051 16.2553 13.062 16.5039 12.9759C16.7558 12.8864 16.9728 12.7538 17.1551 12.5781C17.3374 12.3991 17.4783 12.1771 17.5777 11.9119L18.7112 12.2301C18.5919 12.6146 18.3914 12.9527 18.1097 13.2443C17.828 13.5327 17.48 13.758 17.0657 13.9205C16.6514 14.0795 16.1857 14.1591 15.6686 14.1591ZM23.4989 14.1591C22.8625 14.1591 22.3007 13.9983 21.8135 13.6768C21.3263 13.352 20.9451 12.8946 20.6701 12.3047C20.395 11.7114 20.2574 11.0104 20.2574 10.2017C20.2574 9.39962 20.395 8.7036 20.6701 8.11364C20.9451 7.52367 21.328 7.06794 21.8185 6.74645C22.309 6.42495 22.8758 6.2642 23.5188 6.2642C24.0159 6.2642 24.4087 6.34706 24.697 6.51278C24.9887 6.67519 25.2108 6.8608 25.3632 7.0696C25.519 7.27509 25.64 7.44413 25.7262 7.5767H25.8256V3.81818H26.9989V14H25.8654V12.8267H25.7262C25.64 12.9659 25.5174 13.1416 25.3583 13.3537C25.1992 13.5625 24.9721 13.7498 24.6772 13.9155C24.3822 14.0779 23.9894 14.1591 23.4989 14.1591ZM23.658 13.1051C24.1286 13.1051 24.5264 12.9825 24.8512 12.7372C25.176 12.4886 25.4229 12.1456 25.5919 11.7081C25.761 11.2673 25.8455 10.7585 25.8455 10.1818C25.8455 9.61174 25.7626 9.11293 25.5969 8.68537C25.4312 8.2545 25.1859 7.91974 24.8611 7.68111C24.5363 7.43916 24.1353 7.31818 23.658 7.31818C23.1608 7.31818 22.7465 7.44579 22.4151 7.70099C22.087 7.95289 21.84 8.29593 21.6743 8.73011C21.5119 9.16098 21.4307 9.64489 21.4307 10.1818C21.4307 10.7254 21.5136 11.2192 21.6793 11.6634C21.8483 12.1042 22.0969 12.4555 22.425 12.7173C22.7565 12.9759 23.1675 13.1051 23.658 13.1051ZM36.5692 6.36364V7.35795H32.6118V6.36364H36.5692ZM33.7652 4.53409H34.9385V11.8125C34.9385 12.1439 34.9866 12.3925 35.0827 12.5582C35.1821 12.7206 35.3081 12.83 35.4605 12.8864C35.6163 12.9394 35.7804 12.9659 35.9527 12.9659C36.082 12.9659 36.188 12.9593 36.2709 12.946C36.3538 12.9295 36.4201 12.9162 36.4698 12.9062L36.7084 13.9602C36.6289 13.9901 36.5178 14.0199 36.3753 14.0497C36.2328 14.0829 36.0522 14.0994 35.8334 14.0994C35.502 14.0994 35.1772 14.0282 34.859 13.8857C34.5441 13.7431 34.2823 13.526 34.0735 13.2344C33.868 12.9427 33.7652 12.5748 33.7652 12.1307V4.53409ZM40.5813 14.179C40.0974 14.179 39.6582 14.0878 39.2638 13.9055C38.8694 13.7199 38.5562 13.4531 38.3242 13.1051C38.0922 12.7538 37.9762 12.3295 37.9762 11.8324C37.9762 11.3949 38.0623 11.0402 38.2347 10.7685C38.407 10.4934 38.6374 10.2779 38.9257 10.1222C39.2141 9.96638 39.5323 9.85038 39.8803 9.77415C40.2316 9.6946 40.5846 9.63163 40.9392 9.58523C41.4032 9.52557 41.7794 9.48082 42.0678 9.45099C42.3594 9.41785 42.5716 9.36316 42.7041 9.28693C42.84 9.2107 42.908 9.07812 42.908 8.8892V8.84943C42.908 8.3589 42.7737 7.97775 42.5053 7.70597C42.2401 7.43419 41.8374 7.2983 41.2972 7.2983C40.7371 7.2983 40.2979 7.42093 39.9797 7.66619C39.6615 7.91146 39.4378 8.1733 39.3085 8.4517L38.1949 8.05398C38.3938 7.58996 38.6589 7.22869 38.9904 6.97017C39.3251 6.70833 39.6897 6.52604 40.0841 6.4233C40.4818 6.31723 40.8729 6.2642 41.2574 6.2642C41.5027 6.2642 41.7844 6.29403 42.1026 6.35369C42.4241 6.41004 42.734 6.5277 43.0323 6.70668C43.3339 6.88565 43.5841 7.15578 43.783 7.51705C43.9818 7.87831 44.0813 8.36222 44.0813 8.96875V14H42.908V12.9659H42.8483C42.7688 13.1316 42.6362 13.3089 42.4506 13.4979C42.265 13.6868 42.0181 13.8475 41.7098 13.9801C41.4016 14.1127 41.0254 14.179 40.5813 14.179ZM40.7603 13.125C41.2243 13.125 41.6154 13.0339 41.9335 12.8516C42.255 12.6693 42.497 12.4339 42.6594 12.1456C42.8251 11.8572 42.908 11.554 42.908 11.2358V10.1619C42.8583 10.2216 42.7489 10.2763 42.5799 10.326C42.4141 10.3724 42.2219 10.4138 42.0032 10.4503C41.7877 10.4834 41.5773 10.5133 41.3718 10.5398C41.1696 10.563 41.0055 10.5829 40.8796 10.5994C40.5746 10.6392 40.2896 10.7038 40.0245 10.7933C39.7626 10.8795 39.5505 11.0104 39.3881 11.1861C39.229 11.3584 39.1495 11.5937 39.1495 11.892C39.1495 12.2997 39.3003 12.608 39.6019 12.8168C39.9068 13.0223 40.2929 13.125 40.7603 13.125ZM49.3052 17.0227C48.7384 17.0227 48.2512 16.9498 47.8435 16.804C47.4359 16.6615 47.0961 16.4725 46.8244 16.2372C46.5559 16.0052 46.3421 15.7566 46.183 15.4915L47.1177 14.8352C47.2237 14.9744 47.358 15.1335 47.5204 15.3125C47.6828 15.4948 47.9048 15.6522 48.1866 15.7848C48.4716 15.9207 48.8445 15.9886 49.3052 15.9886C49.9217 15.9886 50.4304 15.8395 50.8315 15.5412C51.2325 15.2429 51.433 14.7756 51.433 14.1392V12.5881H51.3336C51.2474 12.7273 51.1248 12.8996 50.9657 13.1051C50.8099 13.3073 50.5845 13.4879 50.2896 13.647C49.9979 13.8028 49.6035 13.8807 49.1063 13.8807C48.4898 13.8807 47.9363 13.7348 47.4458 13.4432C46.9586 13.1515 46.5725 12.7273 46.2874 12.1705C46.0057 11.6136 45.8648 10.9375 45.8648 10.142C45.8648 9.35985 46.0024 8.67874 46.2775 8.09872C46.5526 7.51539 46.9354 7.06463 47.4259 6.74645C47.9164 6.42495 48.4832 6.2642 49.1262 6.2642C49.6234 6.2642 50.0178 6.34706 50.3094 6.51278C50.6044 6.67519 50.8298 6.8608 50.9856 7.0696C51.1447 7.27509 51.2673 7.44413 51.3535 7.5767H51.4728V6.36364H52.6063V14.2188C52.6063 14.875 52.4572 15.4086 52.1589 15.8196C51.8639 16.2339 51.4662 16.5372 50.9657 16.7294C50.4685 16.925 49.915 17.0227 49.3052 17.0227ZM49.2654 12.8267C49.736 12.8267 50.1338 12.719 50.4586 12.5036C50.7834 12.2881 51.0303 11.9782 51.1994 11.5739C51.3684 11.1695 51.4529 10.6856 51.4529 10.1222C51.4529 9.57197 51.37 9.08641 51.2043 8.66548C51.0386 8.24455 50.7933 7.91477 50.4685 7.67614C50.1437 7.4375 49.7427 7.31818 49.2654 7.31818C48.7682 7.31818 48.3539 7.44413 48.0225 7.69602C47.6944 7.94792 47.4475 8.28598 47.2817 8.71023C47.1193 9.13447 47.0381 9.60511 47.0381 10.1222C47.0381 10.6525 47.121 11.1214 47.2867 11.5291C47.4557 11.9335 47.7043 12.2517 48.0324 12.4837C48.3639 12.7124 48.7749 12.8267 49.2654 12.8267Z" fill="#37352F"/>
<path d="M-4 0H1944V343H-4V0Z" fill="#CCFFE2"/>
<path fill-rule="evenodd" clip-rule="evenodd" d="M1943.55 237.166V343H475.379C535.532 293.689 599.915 248.214 668.419 207.174C1082.63 -40.9782 1540.57 29.3675 1943.55 237.166Z" fill="#FFECEA"/>
<path fill-rule="evenodd" clip-rule="evenodd" d="M1373.87 169.08C1373.93 113.585 1408.92 58.5252 1467.21 46.2886C1518.96 35.4249 1554.8 83.747 1584.16 124.933C1611.76 163.654 1640.07 210.579 1611.16 248.223C1579.64 289.281 1518.29 294.69 1466.96 277.572C1415.17 260.296 1373.82 220.063 1373.87 169.08Z" fill="#0018A4"/>
<path fill-rule="evenodd" clip-rule="evenodd" d="M135.668 64.0355C166.613 63.0843 197.932 81.711 205.784 114.146C212.755 142.942 186.443 163.876 163.996 181.054C142.892 197.204 117.226 213.893 95.7253 198.369C72.2753 181.438 68.1762 147.165 76.8156 118.11C85.5343 88.7876 107.239 64.9093 135.668 64.0355Z" fill="white"/>
<rect x="-4" width="1944" height="100" fill="#0018A4"/>
<path d="M63.6606 41.746C63.6606 36.826 67.6786 32.849 72.7626 32.849C76.6986 32.849 80.0196 35.268 81.2906 38.671L80.7166 38.917C79.5276 35.719 76.4116 33.423 72.7626 33.464C68.0886 33.505 64.2756 37.154 64.3166 41.746C64.3576 45.6 66.9816 48.88 70.6306 49.7L73.5826 50.356C75.0586 50.684 76.1656 52.037 76.1656 53.554C76.1656 55.399 74.6076 56.875 72.6396 56.875C70.9586 56.875 69.5646 55.768 69.1956 54.292L69.8106 54.005C70.0566 55.276 71.2046 56.301 72.6396 56.26C74.2386 56.219 75.4686 55.03 75.5096 53.554C75.5506 52.324 74.6486 51.258 73.3776 50.971L70.5076 50.356C66.4896 49.495 63.6606 45.887 63.6606 41.746ZM64.0706 56.629L64.6856 56.342C65.8336 59.581 68.9496 61.877 72.6396 61.836C77.3136 61.795 81.1266 58.146 81.0856 53.554C81.0446 49.7 78.4206 46.42 74.7716 45.6L71.8196 44.944C70.3436 44.616 69.2366 43.263 69.2366 41.746C69.2366 39.901 70.7946 38.425 72.7626 38.425C74.4436 38.425 75.8376 39.491 76.1656 40.967L75.5916 41.254C75.3456 39.983 74.1566 38.999 72.7626 39.04C71.1636 39.081 69.9336 40.27 69.8926 41.746C69.8516 42.976 70.7536 44.042 72.0246 44.329L74.8946 44.944C78.9126 45.805 81.7416 49.413 81.7416 53.554C81.7416 58.474 77.7236 62.451 72.6396 62.451C68.6626 62.451 65.3416 60.032 64.0706 56.629ZM86.5473 40.926H83.3083V40.27H86.5473V33.3H87.2033V40.27H92.1233V33.3H92.7793V40.27H96.0183V40.926H92.7793V45.846H96.0183V46.502H92.7793V62H92.1233V46.502H87.2033V62H86.5473V46.502H83.3083V45.846H86.5473V40.926ZM92.1233 40.926H87.2033V45.846H92.1233V40.926ZM114.499 42.115V60.155C117.246 58.474 119.419 55.071 119.419 51.135C119.419 47.199 117.246 43.796 114.499 42.115ZM108.718 39.778C110.563 39.778 112.285 40.229 113.843 41.008V40.27H114.499V41.377C116.795 42.648 118.558 44.944 119.419 47.322V40.27H120.075V62H119.419V54.907C118.599 57.244 116.795 59.663 114.499 60.934V62H113.843V61.262C112.285 62.041 110.563 62.492 108.718 62.492C102.445 62.492 97.361 57.408 97.361 51.135C97.361 44.862 102.445 39.778 108.718 39.778ZM108.718 61.836C110.563 61.836 112.326 61.385 113.843 60.565V53.841C112.859 55.645 110.932 56.916 108.718 56.916C105.52 56.916 102.937 54.333 102.937 51.135C102.937 47.937 105.52 45.354 108.718 45.354C110.932 45.354 112.859 46.625 113.843 48.47V41.746C112.326 40.926 110.563 40.434 108.718 40.434C102.814 40.434 98.017 45.231 98.017 51.135C98.017 57.039 102.814 61.836 108.718 61.836ZM108.718 56.26C111.588 56.26 113.843 53.964 113.843 51.135C113.843 48.306 111.588 46.01 108.718 46.01C105.889 46.01 103.593 48.306 103.593 51.135C103.593 53.964 105.889 56.26 108.718 56.26ZM126.306 40.926H123.067V40.27H126.306V33.3H126.962V40.27H131.882V33.3H132.538V40.27H135.777V40.926H132.538V45.846H135.777V46.502H132.538V62H131.882V46.502H126.962V62H126.306V46.502H123.067V45.846H126.306V40.926ZM131.882 40.926H126.962V45.846H131.882V40.926ZM137.12 51.135C137.12 44.862 142.204 39.778 148.477 39.778C153.479 39.778 157.702 42.976 159.219 47.486L145.894 55.563C146.673 56.014 147.534 56.26 148.477 56.26C150.527 56.26 152.29 55.03 153.11 53.308L153.725 53.595C152.823 55.563 150.814 56.916 148.477 56.916C147.288 56.916 146.181 56.547 145.279 55.932L140.851 58.638C142.778 60.606 145.484 61.836 148.477 61.836C152.741 61.836 156.472 59.294 158.194 55.645L158.768 55.932C156.964 59.827 153.028 62.492 148.477 62.492C142.204 62.492 137.12 57.408 137.12 51.135ZM137.776 51.135C137.776 52.324 137.981 53.431 138.309 54.497L142.737 51.791C142.696 51.586 142.696 51.34 142.696 51.135C142.696 47.937 145.279 45.354 148.477 45.354C149.666 45.354 150.814 45.723 151.716 46.338L156.103 43.673C154.176 41.664 151.47 40.434 148.477 40.434C142.573 40.434 137.776 45.231 137.776 51.135ZM138.555 55.112C139.006 56.219 139.621 57.244 140.4 58.146L144.705 55.522C143.803 54.743 143.147 53.677 142.86 52.488L138.555 55.112ZM143.352 51.135V51.422L151.101 46.707C150.322 46.256 149.42 46.01 148.477 46.01C145.648 46.01 143.352 48.306 143.352 51.135ZM143.434 52.16C143.68 53.349 144.377 54.415 145.32 55.153L153.52 50.151C153.274 48.962 152.618 47.896 151.675 47.117L143.434 52.16ZM152.29 46.789C153.192 47.568 153.848 48.593 154.094 49.823L158.44 47.158C157.989 46.051 157.333 45.067 156.595 44.165L152.29 46.789ZM188.352 55.522L185.728 62H185.072L178.061 44.698L175.027 62H174.371L177.61 43.55L173.961 34.448L169.123 62H168.467L173.51 33.3H174.166L177.815 42.402L179.414 33.3H180.07L188.352 53.882L196.634 33.3H197.29L198.889 42.361L202.538 33.3H203.194L208.237 62H207.581L202.743 34.448L199.094 43.509L202.333 62H201.677L198.643 44.616L191.632 62H190.976L188.352 55.522ZM191.304 61.18L198.438 43.468L196.839 34.448L188.68 54.702L191.304 61.18ZM188.024 54.702L179.865 34.448L178.266 43.55L185.4 61.18L188.024 54.702ZM226.608 42.115V60.155C229.355 58.474 231.528 55.071 231.528 51.135C231.528 47.199 229.355 43.796 226.608 42.115ZM220.827 39.778C222.672 39.778 224.394 40.229 225.952 41.008V40.27H226.608V41.377C228.904 42.648 230.667 44.944 231.528 47.322V40.27H232.184V62H231.528V54.907C230.708 57.244 228.904 59.663 226.608 60.934V62H225.952V61.262C224.394 62.041 222.672 62.492 220.827 62.492C214.554 62.492 209.47 57.408 209.47 51.135C209.47 44.862 214.554 39.778 220.827 39.778ZM220.827 61.836C222.672 61.836 224.435 61.385 225.952 60.565V53.841C224.968 55.645 223.041 56.916 220.827 56.916C217.629 56.916 215.046 54.333 215.046 51.135C215.046 47.937 217.629 45.354 220.827 45.354C223.041 45.354 224.968 46.625 225.952 48.47V41.746C224.435 40.926 222.672 40.434 220.827 40.434C214.923 40.434 210.126 45.231 210.126 51.135C210.126 57.039 214.923 61.836 220.827 61.836ZM220.827 56.26C223.697 56.26 225.952 53.964 225.952 51.135C225.952 48.306 223.697 46.01 220.827 46.01C217.998 46.01 215.702 48.306 215.702 51.135C215.702 53.964 217.998 56.26 220.827 56.26ZM236.365 62V40.27H237.021V46.461C237.923 44.124 239.686 42.197 241.941 41.09V40.27H242.597V40.762C243.745 40.311 244.975 40.065 246.287 40.065C251.74 40.065 256.209 44.534 256.209 49.987V62H255.553V49.987C255.553 44.903 251.371 40.721 246.287 40.721C244.975 40.721 243.745 41.008 242.597 41.5V47.691C243.376 46.461 244.729 45.641 246.287 45.641C248.665 45.641 250.633 47.609 250.633 49.987V62H249.977V49.987C249.977 47.978 248.296 46.297 246.287 46.297C244.278 46.297 242.597 47.978 242.597 49.987V62H241.941V41.828C239.03 43.386 237.021 46.461 237.021 49.987V62H236.365ZM275.977 42.115V60.155C278.724 58.474 280.897 55.071 280.897 51.135C280.897 47.199 278.724 43.796 275.977 42.115ZM270.196 39.778C272.041 39.778 273.763 40.229 275.321 41.008V40.27H275.977V41.377C278.273 42.648 280.036 44.944 280.897 47.322V40.27H281.553V62H280.897V54.907C280.077 57.244 278.273 59.663 275.977 60.934V62H275.321V61.262C273.763 62.041 272.041 62.492 270.196 62.492C263.923 62.492 258.839 57.408 258.839 51.135C258.839 44.862 263.923 39.778 270.196 39.778ZM270.196 61.836C272.041 61.836 273.804 61.385 275.321 60.565V53.841C274.337 55.645 272.41 56.916 270.196 56.916C266.998 56.916 264.415 54.333 264.415 51.135C264.415 47.937 266.998 45.354 270.196 45.354C272.41 45.354 274.337 46.625 275.321 48.47V41.746C273.804 40.926 272.041 40.434 270.196 40.434C264.292 40.434 259.495 45.231 259.495 51.135C259.495 57.039 264.292 61.836 270.196 61.836ZM270.196 56.26C273.066 56.26 275.321 53.964 275.321 51.135C275.321 48.306 273.066 46.01 270.196 46.01C267.367 46.01 265.071 48.306 265.071 51.135C265.071 53.964 267.367 56.26 270.196 56.26ZM284.545 51.135C284.545 44.862 289.629 39.778 295.902 39.778C297.747 39.778 299.469 40.229 301.027 41.008V40.27H301.683V41.377C303.979 42.648 305.742 44.944 306.603 47.322V40.27H307.259V60.155C307.259 66.428 302.216 71.512 295.902 71.512C292.007 71.512 288.563 69.503 286.472 66.51L287.046 66.182C289.014 69.011 292.253 70.856 295.902 70.856C301.888 70.856 306.603 66.1 306.603 60.155V54.907C305.783 57.285 303.938 59.663 301.601 60.934C301.191 63.722 298.854 65.936 295.902 65.936C294.057 65.936 292.376 65.034 291.31 63.722L291.884 63.394C292.786 64.501 294.303 65.28 295.902 65.28C298.362 65.28 300.371 63.599 300.904 61.344C299.387 62.041 297.665 62.492 295.902 62.492C289.629 62.492 284.545 57.408 284.545 51.135ZM285.201 51.135C285.201 57.039 289.998 61.836 295.902 61.836C297.747 61.836 299.469 61.385 300.986 60.565C301.027 60.278 301.027 59.745 301.027 59.212V53.841C300.043 55.645 298.116 56.916 295.902 56.916C292.704 56.916 290.121 54.333 290.121 51.135C290.121 47.937 292.704 45.354 295.902 45.354C298.116 45.354 300.043 46.625 301.027 48.47V41.746C299.51 40.926 297.747 40.434 295.902 40.434C289.998 40.434 285.201 45.231 285.201 51.135ZM290.777 51.135C290.777 53.964 293.073 56.26 295.902 56.26C298.772 56.26 301.027 53.964 301.027 51.135C301.027 48.306 298.772 46.01 295.902 46.01C293.073 46.01 290.777 48.306 290.777 51.135ZM301.683 42.115V60.155C304.43 58.474 306.603 55.071 306.603 51.135C306.603 47.199 304.43 43.796 301.683 42.115ZM310.169 51.135C310.169 44.862 315.253 39.778 321.526 39.778C326.528 39.778 330.751 42.976 332.268 47.486L318.943 55.563C319.722 56.014 320.583 56.26 321.526 56.26C323.576 56.26 325.339 55.03 326.159 53.308L326.774 53.595C325.872 55.563 323.863 56.916 321.526 56.916C320.337 56.916 319.23 56.547 318.328 55.932L313.9 58.638C315.827 60.606 318.533 61.836 321.526 61.836C325.79 61.836 329.521 59.294 331.243 55.645L331.817 55.932C330.013 59.827 326.077 62.492 321.526 62.492C315.253 62.492 310.169 57.408 310.169 51.135ZM310.825 51.135C310.825 52.324 311.03 53.431 311.358 54.497L315.786 51.791C315.745 51.586 315.745 51.34 315.745 51.135C315.745 47.937 318.328 45.354 321.526 45.354C322.715 45.354 323.863 45.723 324.765 46.338L329.152 43.673C327.225 41.664 324.519 40.434 321.526 40.434C315.622 40.434 310.825 45.231 310.825 51.135ZM311.604 55.112C312.055 56.219 312.67 57.244 313.449 58.146L317.754 55.522C316.852 54.743 316.196 53.677 315.909 52.488L311.604 55.112ZM316.401 51.135V51.422L324.15 46.707C323.371 46.256 322.469 46.01 321.526 46.01C318.697 46.01 316.401 48.306 316.401 51.135ZM316.483 52.16C316.729 53.349 317.426 54.415 318.369 55.153L326.569 50.151C326.323 48.962 325.667 47.896 324.724 47.117L316.483 52.16ZM325.339 46.789C326.241 47.568 326.897 48.593 327.143 49.823L331.489 47.158C331.038 46.051 330.382 45.067 329.644 44.165L325.339 46.789ZM334.261 62V40.27H334.917V45.969C335.819 43.714 337.623 41.869 339.837 40.885V40.27H340.493V40.639C341.436 40.311 342.502 40.106 343.568 40.106C345.946 40.106 348.119 41.008 349.759 42.484C351.399 41.008 353.572 40.106 355.95 40.106C361.075 40.106 365.257 44.288 365.257 49.413V62H364.601V49.413C364.601 44.657 360.706 40.762 355.95 40.762C353.777 40.762 351.768 41.582 350.251 42.935C351.481 44.206 352.342 45.805 352.711 47.609C353.326 46.461 354.556 45.682 355.95 45.682C358 45.682 359.681 47.363 359.681 49.413V62H359.025V49.413C359.025 47.732 357.631 46.338 355.95 46.338C354.269 46.338 352.875 47.732 352.875 49.413V62H352.219V49.413C352.219 47.076 351.276 44.944 349.759 43.386C348.242 44.944 347.299 47.076 347.299 49.413V62H346.643V49.413C346.643 47.732 345.249 46.338 343.568 46.338C341.887 46.338 340.493 47.732 340.493 49.413V62H339.837V41.623C336.926 43.017 334.917 46.01 334.917 49.413V62H334.261ZM340.493 41.336V47.322C341.149 46.338 342.297 45.682 343.568 45.682C344.962 45.682 346.192 46.461 346.807 47.609C347.176 45.805 348.037 44.206 349.267 42.935C347.75 41.582 345.741 40.762 343.568 40.762C342.502 40.762 341.436 40.967 340.493 41.336ZM367.905 51.135C367.905 44.862 372.989 39.778 379.262 39.778C384.264 39.778 388.487 42.976 390.004 47.486L376.679 55.563C377.458 56.014 378.319 56.26 379.262 56.26C381.312 56.26 383.075 55.03 383.895 53.308L384.51 53.595C383.608 55.563 381.599 56.916 379.262 56.916C378.073 56.916 376.966 56.547 376.064 55.932L371.636 58.638C373.563 60.606 376.269 61.836 379.262 61.836C383.526 61.836 387.257 59.294 388.979 55.645L389.553 55.932C387.749 59.827 383.813 62.492 379.262 62.492C372.989 62.492 367.905 57.408 367.905 51.135ZM368.561 51.135C368.561 52.324 368.766 53.431 369.094 54.497L373.522 51.791C373.481 51.586 373.481 51.34 373.481 51.135C373.481 47.937 376.064 45.354 379.262 45.354C380.451 45.354 381.599 45.723 382.501 46.338L386.888 43.673C384.961 41.664 382.255 40.434 379.262 40.434C373.358 40.434 368.561 45.231 368.561 51.135ZM369.34 55.112C369.791 56.219 370.406 57.244 371.185 58.146L375.49 55.522C374.588 54.743 373.932 53.677 373.645 52.488L369.34 55.112ZM374.137 51.135V51.422L381.886 46.707C381.107 46.256 380.205 46.01 379.262 46.01C376.433 46.01 374.137 48.306 374.137 51.135ZM374.219 52.16C374.465 53.349 375.162 54.415 376.105 55.153L384.305 50.151C384.059 48.962 383.403 47.896 382.46 47.117L374.219 52.16ZM383.075 46.789C383.977 47.568 384.633 48.593 384.879 49.823L389.225 47.158C388.774 46.051 388.118 45.067 387.38 44.165L383.075 46.789ZM391.997 62V40.27H392.653V46.461C393.555 44.124 395.318 42.197 397.573 41.09V40.27H398.229V40.762C399.377 40.311 400.607 40.065 401.919 40.065C407.372 40.065 411.841 44.534 411.841 49.987V62H411.185V49.987C411.185 44.903 407.003 40.721 401.919 40.721C400.607 40.721 399.377 41.008 398.229 41.5V47.691C399.008 46.461 400.361 45.641 401.919 45.641C404.297 45.641 406.265 47.609 406.265 49.987V62H405.609V49.987C405.609 47.978 403.928 46.297 401.919 46.297C399.91 46.297 398.229 47.978 398.229 49.987V62H397.573V41.828C394.662 43.386 392.653 46.461 392.653 49.987V62H391.997ZM417.35 40.926H414.111V40.27H417.35V33.3H418.006V40.27H422.926V33.3H423.582V40.27H426.821V40.926H423.582V45.846H426.821V46.502H423.582V62H422.926V46.502H418.006V62H417.35V46.502H414.111V45.846H417.35V40.926ZM422.926 40.926H418.006V45.846H422.926V40.926ZM452.138 56.26C456.853 56.26 460.748 52.365 460.748 47.65C460.748 42.935 456.853 39.04 452.138 39.04C447.423 39.04 443.528 42.935 443.528 47.65C443.528 52.365 447.423 56.26 452.138 56.26ZM460.215 52.119L463.618 55.973C465.299 53.636 466.324 50.766 466.324 47.65C466.324 39.819 459.969 33.464 452.138 33.464C444.307 33.464 437.952 39.819 437.952 47.65C437.952 55.481 444.307 61.836 452.138 61.836C454.598 61.836 456.935 61.221 458.985 60.073L455.623 56.219C454.557 56.67 453.368 56.916 452.138 56.916C447.095 56.916 442.872 52.693 442.872 47.65C442.872 42.607 447.095 38.384 452.138 38.384C457.181 38.384 461.404 42.607 461.404 47.65C461.404 49.29 460.953 50.807 460.215 52.119ZM456.238 55.932L459.518 59.745C460.789 59.048 462.224 57.777 463.208 56.506L459.846 52.693C459.026 54.005 457.796 55.153 456.238 55.932ZM465.586 59.212L463.659 56.998C462.552 58.392 461.117 59.581 459.969 60.237L461.855 62.451L461.363 62.861L459.395 60.565C457.263 61.795 454.762 62.492 452.138 62.492C443.979 62.492 437.296 55.809 437.296 47.65C437.296 39.491 443.979 32.808 452.138 32.808C460.297 32.808 466.98 39.491 466.98 47.65C466.98 50.971 465.873 54.005 464.028 56.465L466.078 58.802L465.586 59.212ZM489.67 40.27V62H489.014V55.809C488.112 58.146 486.349 60.073 484.094 61.18V62H483.438V61.508C482.29 61.959 481.06 62.205 479.748 62.205C474.295 62.205 469.826 57.736 469.826 52.283V40.27H470.482V52.283C470.482 57.367 474.664 61.549 479.748 61.549C481.06 61.549 482.29 61.262 483.438 60.77V54.579C482.659 55.809 481.306 56.629 479.748 56.629C477.37 56.629 475.402 54.661 475.402 52.283V40.27H476.058V52.283C476.058 54.292 477.739 55.973 479.748 55.973C481.757 55.973 483.438 54.292 483.438 52.283V40.27H484.094V60.442C487.005 58.884 489.014 55.809 489.014 52.283V40.27H489.67ZM493.857 62V40.27H494.513V62H493.857ZM500.089 40.27V62H499.433V40.27H500.089ZM499.433 38.138V31.25H500.089V38.138H499.433ZM494.513 31.25V38.138H493.857V31.25H494.513ZM509.72 61.344H520.298V62H502.422L510.581 46.502H503.611V45.846H510.909L513.533 40.926H503.611V40.27H520.831L512.672 55.768H520.298V56.424H512.344L509.72 61.344ZM511.934 55.768L516.813 46.502H511.319L506.44 55.768H511.934ZM511.606 56.424H506.112L503.488 61.344H508.982L511.606 56.424ZM517.141 45.846L519.765 40.926H514.271L511.647 45.846H517.141ZM538.819 39.532V45.928H541.73C543.534 45.928 544.928 44.534 544.928 42.73C544.928 40.926 543.534 39.532 541.73 39.532H538.819ZM538.819 38.876H541.73C543.862 38.876 545.584 40.598 545.584 42.73C545.584 44.862 543.862 46.584 541.73 46.584H538.819V51.504H541.73C546.65 51.504 550.504 47.65 550.504 42.73C550.504 37.81 546.65 33.956 541.73 33.956H538.819V38.876ZM533.243 52.16V62H532.587V33.3H541.73C546.978 33.3 551.16 37.482 551.16 42.73C551.16 47.978 546.978 52.16 541.73 52.16H538.819V62H538.163V52.16H533.243ZM533.243 39.532V45.928H538.163V39.532H533.243ZM538.163 33.956H533.243V38.876H538.163V33.956ZM538.163 46.584H533.243V51.504H538.163V46.584ZM559.491 62V42.689C557.277 44.042 554.571 46.83 554.571 51.709V62H553.915V40.27H554.571V47.732C555.596 44.903 557.195 43.304 559.491 41.951V40.27H560.147V41.582C561.787 40.762 563.55 40.352 565.272 40.352V41.008C563.55 41.008 561.746 41.459 560.147 42.32V49.044C561.09 47.199 563.058 45.928 565.272 45.928V46.584C562.402 46.584 560.147 48.88 560.147 51.709V62H559.491ZM577.415 62.492C571.142 62.492 566.058 57.408 566.058 51.135C566.058 44.862 571.142 39.778 577.415 39.778C583.688 39.778 588.772 44.862 588.772 51.135C588.772 57.408 583.688 62.492 577.415 62.492ZM577.415 61.836C583.319 61.836 588.116 57.039 588.116 51.135C588.116 45.231 583.319 40.434 577.415 40.434C571.511 40.434 566.714 45.231 566.714 51.135C566.714 57.039 571.511 61.836 577.415 61.836ZM577.415 56.916C574.217 56.916 571.634 54.333 571.634 51.135C571.634 47.937 574.217 45.354 577.415 45.354C580.613 45.354 583.196 47.937 583.196 51.135C583.196 54.333 580.613 56.916 577.415 56.916ZM577.415 56.26C580.244 56.26 582.54 53.964 582.54 51.135C582.54 48.306 580.244 46.01 577.415 46.01C574.586 46.01 572.29 48.306 572.29 51.135C572.29 53.964 574.586 56.26 577.415 56.26ZM598.436 40.27V63.722C598.436 67.699 595.156 71.02 591.179 71.02H587.981V70.364H591.179C594.828 70.364 597.78 67.371 597.78 63.722V40.27H598.436ZM587.981 64.788H591.179C591.753 64.788 592.204 64.296 592.204 63.722V40.27H592.86V63.722C592.86 64.624 592.163 65.444 591.179 65.444H587.981V64.788ZM592.86 31.25V38.138H592.204V31.25H592.86ZM597.78 38.138V31.25H598.436V38.138H597.78ZM601.373 51.135C601.373 44.862 606.457 39.778 612.73 39.778C617.732 39.778 621.955 42.976 623.472 47.486L610.147 55.563C610.926 56.014 611.787 56.26 612.73 56.26C614.78 56.26 616.543 55.03 617.363 53.308L617.978 53.595C617.076 55.563 615.067 56.916 612.73 56.916C611.541 56.916 610.434 56.547 609.532 55.932L605.104 58.638C607.031 60.606 609.737 61.836 612.73 61.836C616.994 61.836 620.725 59.294 622.447 55.645L623.021 55.932C621.217 59.827 617.281 62.492 612.73 62.492C606.457 62.492 601.373 57.408 601.373 51.135ZM602.029 51.135C602.029 52.324 602.234 53.431 602.562 54.497L606.99 51.791C606.949 51.586 606.949 51.34 606.949 51.135C606.949 47.937 609.532 45.354 612.73 45.354C613.919 45.354 615.067 45.723 615.969 46.338L620.356 43.673C618.429 41.664 615.723 40.434 612.73 40.434C606.826 40.434 602.029 45.231 602.029 51.135ZM602.808 55.112C603.259 56.219 603.874 57.244 604.653 58.146L608.958 55.522C608.056 54.743 607.4 53.677 607.113 52.488L602.808 55.112ZM607.605 51.135V51.422L615.354 46.707C614.575 46.256 613.673 46.01 612.73 46.01C609.901 46.01 607.605 48.306 607.605 51.135ZM607.687 52.16C607.933 53.349 608.63 54.415 609.573 55.153L617.773 50.151C617.527 48.962 616.871 47.896 615.928 47.117L607.687 52.16ZM616.543 46.789C617.445 47.568 618.101 48.593 618.347 49.823L622.693 47.158C622.242 46.051 621.586 45.067 620.848 44.165L616.543 46.789ZM636.33 45.846V46.502H635.141C632.64 46.502 630.508 48.634 630.508 51.135C630.508 53.636 632.64 55.768 635.141 55.768H636.33V56.424H635.141C632.271 56.424 629.852 54.005 629.852 51.135C629.852 48.265 632.271 45.846 635.141 45.846H636.33ZM636.33 40.926H635.141C629.524 40.926 624.932 45.518 624.932 51.135C624.932 56.752 629.524 61.344 635.141 61.344H636.33V62H635.141C629.155 62 624.276 57.121 624.276 51.135C624.276 45.149 629.155 40.27 635.141 40.27H636.33V40.926ZM641.849 40.926H638.61V40.27H641.849V33.3H642.505V40.27H647.425V33.3H648.081V40.27H651.32V40.926H648.081V45.846H651.32V46.502H648.081V62H647.425V46.502H642.505V62H641.849V46.502H638.61V45.846H641.849V40.926ZM647.425 40.926H642.505V45.846H647.425V40.926ZM662.205 41.746C662.205 36.826 666.223 32.849 671.307 32.849C675.243 32.849 678.564 35.268 679.835 38.671L679.261 38.917C678.072 35.719 674.956 33.423 671.307 33.464C666.633 33.505 662.82 37.154 662.861 41.746C662.902 45.6 665.526 48.88 669.175 49.7L672.127 50.356C673.603 50.684 674.71 52.037 674.71 53.554C674.71 55.399 673.152 56.875 671.184 56.875C669.503 56.875 668.109 55.768 667.74 54.292L668.355 54.005C668.601 55.276 669.749 56.301 671.184 56.26C672.783 56.219 674.013 55.03 674.054 53.554C674.095 52.324 673.193 51.258 671.922 50.971L669.052 50.356C665.034 49.495 662.205 45.887 662.205 41.746ZM662.615 56.629L663.23 56.342C664.378 59.581 667.494 61.877 671.184 61.836C675.858 61.795 679.671 58.146 679.63 53.554C679.589 49.7 676.965 46.42 673.316 45.6L670.364 44.944C668.888 44.616 667.781 43.263 667.781 41.746C667.781 39.901 669.339 38.425 671.307 38.425C672.988 38.425 674.382 39.491 674.71 40.967L674.136 41.254C673.89 39.983 672.701 38.999 671.307 39.04C669.708 39.081 668.478 40.27 668.437 41.746C668.396 42.976 669.298 44.042 670.569 44.329L673.439 44.944C677.457 45.805 680.286 49.413 680.286 53.554C680.286 58.474 676.268 62.451 671.184 62.451C667.207 62.451 663.886 60.032 662.615 56.629ZM685.091 40.926H681.852V40.27H685.091V33.3H685.747V40.27H690.667V33.3H691.323V40.27H694.562V40.926H691.323V45.846H694.562V46.502H691.323V62H690.667V46.502H685.747V62H685.091V46.502H681.852V45.846H685.091V40.926ZM690.667 40.926H685.747V45.846H690.667V40.926ZM713.043 42.115V60.155C715.79 58.474 717.963 55.071 717.963 51.135C717.963 47.199 715.79 43.796 713.043 42.115ZM707.262 39.778C709.107 39.778 710.829 40.229 712.387 41.008V40.27H713.043V41.377C715.339 42.648 717.102 44.944 717.963 47.322V40.27H718.619V62H717.963V54.907C717.143 57.244 715.339 59.663 713.043 60.934V62H712.387V61.262C710.829 62.041 709.107 62.492 707.262 62.492C700.989 62.492 695.905 57.408 695.905 51.135C695.905 44.862 700.989 39.778 707.262 39.778ZM707.262 61.836C709.107 61.836 710.87 61.385 712.387 60.565V53.841C711.403 55.645 709.476 56.916 707.262 56.916C704.064 56.916 701.481 54.333 701.481 51.135C701.481 47.937 704.064 45.354 707.262 45.354C709.476 45.354 711.403 46.625 712.387 48.47V41.746C710.87 40.926 709.107 40.434 707.262 40.434C701.358 40.434 696.561 45.231 696.561 51.135C696.561 57.039 701.358 61.836 707.262 61.836ZM707.262 56.26C710.132 56.26 712.387 53.964 712.387 51.135C712.387 48.306 710.132 46.01 707.262 46.01C704.433 46.01 702.137 48.306 702.137 51.135C702.137 53.964 704.433 56.26 707.262 56.26ZM724.85 40.926H721.611V40.27H724.85V33.3H725.506V40.27H730.426V33.3H731.082V40.27H734.321V40.926H731.082V45.846H734.321V46.502H731.082V62H730.426V46.502H725.506V62H724.85V46.502H721.611V45.846H724.85V40.926ZM730.426 40.926H725.506V45.846H730.426V40.926ZM735.664 51.135C735.664 44.862 740.748 39.778 747.021 39.778C752.023 39.778 756.246 42.976 757.763 47.486L744.438 55.563C745.217 56.014 746.078 56.26 747.021 56.26C749.071 56.26 750.834 55.03 751.654 53.308L752.269 53.595C751.367 55.563 749.358 56.916 747.021 56.916C745.832 56.916 744.725 56.547 743.823 55.932L739.395 58.638C741.322 60.606 744.028 61.836 747.021 61.836C751.285 61.836 755.016 59.294 756.738 55.645L757.312 55.932C755.508 59.827 751.572 62.492 747.021 62.492C740.748 62.492 735.664 57.408 735.664 51.135ZM736.32 51.135C736.32 52.324 736.525 53.431 736.853 54.497L741.281 51.791C741.24 51.586 741.24 51.34 741.24 51.135C741.24 47.937 743.823 45.354 747.021 45.354C748.21 45.354 749.358 45.723 750.26 46.338L754.647 43.673C752.72 41.664 750.014 40.434 747.021 40.434C741.117 40.434 736.32 45.231 736.32 51.135ZM737.099 55.112C737.55 56.219 738.165 57.244 738.944 58.146L743.249 55.522C742.347 54.743 741.691 53.677 741.404 52.488L737.099 55.112ZM741.896 51.135V51.422L749.645 46.707C748.866 46.256 747.964 46.01 747.021 46.01C744.192 46.01 741.896 48.306 741.896 51.135ZM741.978 52.16C742.224 53.349 742.921 54.415 743.864 55.153L752.064 50.151C751.818 48.962 751.162 47.896 750.219 47.117L741.978 52.16ZM750.834 46.789C751.736 47.568 752.392 48.593 752.638 49.823L756.984 47.158C756.533 46.051 755.877 45.067 755.139 44.165L750.834 46.789ZM786.896 55.522L784.272 62H783.616L776.605 44.698L773.571 62H772.915L776.154 43.55L772.505 34.448L767.667 62H767.011L772.054 33.3H772.71L776.359 42.402L777.958 33.3H778.614L786.896 53.882L795.178 33.3H795.834L797.433 42.361L801.082 33.3H801.738L806.781 62H806.125L801.287 34.448L797.638 43.509L800.877 62H800.221L797.187 44.616L790.176 62H789.52L786.896 55.522ZM789.848 61.18L796.982 43.468L795.383 34.448L787.224 54.702L789.848 61.18ZM786.568 54.702L778.409 34.448L776.81 43.55L783.944 61.18L786.568 54.702ZM825.152 42.115V60.155C827.899 58.474 830.072 55.071 830.072 51.135C830.072 47.199 827.899 43.796 825.152 42.115ZM819.371 39.778C821.216 39.778 822.938 40.229 824.496 41.008V40.27H825.152V41.377C827.448 42.648 829.211 44.944 830.072 47.322V40.27H830.728V62H830.072V54.907C829.252 57.244 827.448 59.663 825.152 60.934V62H824.496V61.262C822.938 62.041 821.216 62.492 819.371 62.492C813.098 62.492 808.014 57.408 808.014 51.135C808.014 44.862 813.098 39.778 819.371 39.778ZM819.371 61.836C821.216 61.836 822.979 61.385 824.496 60.565V53.841C823.512 55.645 821.585 56.916 819.371 56.916C816.173 56.916 813.59 54.333 813.59 51.135C813.59 47.937 816.173 45.354 819.371 45.354C821.585 45.354 823.512 46.625 824.496 48.47V41.746C822.979 40.926 821.216 40.434 819.371 40.434C813.467 40.434 808.67 45.231 808.67 51.135C808.67 57.039 813.467 61.836 819.371 61.836ZM819.371 56.26C822.241 56.26 824.496 53.964 824.496 51.135C824.496 48.306 822.241 46.01 819.371 46.01C816.542 46.01 814.246 48.306 814.246 51.135C814.246 53.964 816.542 56.26 819.371 56.26ZM834.909 62V40.27H835.565V46.461C836.467 44.124 838.23 42.197 840.485 41.09V40.27H841.141V40.762C842.289 40.311 843.519 40.065 844.831 40.065C850.284 40.065 854.753 44.534 854.753 49.987V62H854.097V49.987C854.097 44.903 849.915 40.721 844.831 40.721C843.519 40.721 842.289 41.008 841.141 41.5V47.691C841.92 46.461 843.273 45.641 844.831 45.641C847.209 45.641 849.177 47.609 849.177 49.987V62H848.521V49.987C848.521 47.978 846.84 46.297 844.831 46.297C842.822 46.297 841.141 47.978 841.141 49.987V62H840.485V41.828C837.574 43.386 835.565 46.461 835.565 49.987V62H834.909ZM874.52 42.115V60.155C877.267 58.474 879.44 55.071 879.44 51.135C879.44 47.199 877.267 43.796 874.52 42.115ZM868.739 39.778C870.584 39.778 872.306 40.229 873.864 41.008V40.27H874.52V41.377C876.816 42.648 878.579 44.944 879.44 47.322V40.27H880.096V62H879.44V54.907C878.62 57.244 876.816 59.663 874.52 60.934V62H873.864V61.262C872.306 62.041 870.584 62.492 868.739 62.492C862.466 62.492 857.382 57.408 857.382 51.135C857.382 44.862 862.466 39.778 868.739 39.778ZM868.739 61.836C870.584 61.836 872.347 61.385 873.864 60.565V53.841C872.88 55.645 870.953 56.916 868.739 56.916C865.541 56.916 862.958 54.333 862.958 51.135C862.958 47.937 865.541 45.354 868.739 45.354C870.953 45.354 872.88 46.625 873.864 48.47V41.746C872.347 40.926 870.584 40.434 868.739 40.434C862.835 40.434 858.038 45.231 858.038 51.135C858.038 57.039 862.835 61.836 868.739 61.836ZM868.739 56.26C871.609 56.26 873.864 53.964 873.864 51.135C873.864 48.306 871.609 46.01 868.739 46.01C865.91 46.01 863.614 48.306 863.614 51.135C863.614 53.964 865.91 56.26 868.739 56.26ZM883.089 51.135C883.089 44.862 888.173 39.778 894.446 39.778C896.291 39.778 898.013 40.229 899.571 41.008V40.27H900.227V41.377C902.523 42.648 904.286 44.944 905.147 47.322V40.27H905.803V60.155C905.803 66.428 900.76 71.512 894.446 71.512C890.551 71.512 887.107 69.503 885.016 66.51L885.59 66.182C887.558 69.011 890.797 70.856 894.446 70.856C900.432 70.856 905.147 66.1 905.147 60.155V54.907C904.327 57.285 902.482 59.663 900.145 60.934C899.735 63.722 897.398 65.936 894.446 65.936C892.601 65.936 890.92 65.034 889.854 63.722L890.428 63.394C891.33 64.501 892.847 65.28 894.446 65.28C896.906 65.28 898.915 63.599 899.448 61.344C897.931 62.041 896.209 62.492 894.446 62.492C888.173 62.492 883.089 57.408 883.089 51.135ZM883.745 51.135C883.745 57.039 888.542 61.836 894.446 61.836C896.291 61.836 898.013 61.385 899.53 60.565C899.571 60.278 899.571 59.745 899.571 59.212V53.841C898.587 55.645 896.66 56.916 894.446 56.916C891.248 56.916 888.665 54.333 888.665 51.135C888.665 47.937 891.248 45.354 894.446 45.354C896.66 45.354 898.587 46.625 899.571 48.47V41.746C898.054 40.926 896.291 40.434 894.446 40.434C888.542 40.434 883.745 45.231 883.745 51.135ZM889.321 51.135C889.321 53.964 891.617 56.26 894.446 56.26C897.316 56.26 899.571 53.964 899.571 51.135C899.571 48.306 897.316 46.01 894.446 46.01C891.617 46.01 889.321 48.306 889.321 51.135ZM900.227 42.115V60.155C902.974 58.474 905.147 55.071 905.147 51.135C905.147 47.199 902.974 43.796 900.227 42.115ZM908.713 51.135C908.713 44.862 913.797 39.778 920.07 39.778C925.072 39.778 929.295 42.976 930.812 47.486L917.487 55.563C918.266 56.014 919.127 56.26 920.07 56.26C922.12 56.26 923.883 55.03 924.703 53.308L925.318 53.595C924.416 55.563 922.407 56.916 920.07 56.916C918.881 56.916 917.774 56.547 916.872 55.932L912.444 58.638C914.371 60.606 917.077 61.836 920.07 61.836C924.334 61.836 928.065 59.294 929.787 55.645L930.361 55.932C928.557 59.827 924.621 62.492 920.07 62.492C913.797 62.492 908.713 57.408 908.713 51.135ZM909.369 51.135C909.369 52.324 909.574 53.431 909.902 54.497L914.33 51.791C914.289 51.586 914.289 51.34 914.289 51.135C914.289 47.937 916.872 45.354 920.07 45.354C921.259 45.354 922.407 45.723 923.309 46.338L927.696 43.673C925.769 41.664 923.063 40.434 920.07 40.434C914.166 40.434 909.369 45.231 909.369 51.135ZM910.148 55.112C910.599 56.219 911.214 57.244 911.993 58.146L916.298 55.522C915.396 54.743 914.74 53.677 914.453 52.488L910.148 55.112ZM914.945 51.135V51.422L922.694 46.707C921.915 46.256 921.013 46.01 920.07 46.01C917.241 46.01 914.945 48.306 914.945 51.135ZM915.027 52.16C915.273 53.349 915.97 54.415 916.913 55.153L925.113 50.151C924.867 48.962 924.211 47.896 923.268 47.117L915.027 52.16ZM923.883 46.789C924.785 47.568 925.441 48.593 925.687 49.823L930.033 47.158C929.582 46.051 928.926 45.067 928.188 44.165L923.883 46.789ZM932.805 62V40.27H933.461V45.969C934.363 43.714 936.167 41.869 938.381 40.885V40.27H939.037V40.639C939.98 40.311 941.046 40.106 942.112 40.106C944.49 40.106 946.663 41.008 948.303 42.484C949.943 41.008 952.116 40.106 954.494 40.106C959.619 40.106 963.801 44.288 963.801 49.413V62H963.145V49.413C963.145 44.657 959.25 40.762 954.494 40.762C952.321 40.762 950.312 41.582 948.795 42.935C950.025 44.206 950.886 45.805 951.255 47.609C951.87 46.461 953.1 45.682 954.494 45.682C956.544 45.682 958.225 47.363 958.225 49.413V62H957.569V49.413C957.569 47.732 956.175 46.338 954.494 46.338C952.813 46.338 951.419 47.732 951.419 49.413V62H950.763V49.413C950.763 47.076 949.82 44.944 948.303 43.386C946.786 44.944 945.843 47.076 945.843 49.413V62H945.187V49.413C945.187 47.732 943.793 46.338 942.112 46.338C940.431 46.338 939.037 47.732 939.037 49.413V62H938.381V41.623C935.47 43.017 933.461 46.01 933.461 49.413V62H932.805ZM939.037 41.336V47.322C939.693 46.338 940.841 45.682 942.112 45.682C943.506 45.682 944.736 46.461 945.351 47.609C945.72 45.805 946.581 44.206 947.811 42.935C946.294 41.582 944.285 40.762 942.112 40.762C941.046 40.762 939.98 40.967 939.037 41.336ZM966.449 51.135C966.449 44.862 971.533 39.778 977.806 39.778C982.808 39.778 987.031 42.976 988.548 47.486L975.223 55.563C976.002 56.014 976.863 56.26 977.806 56.26C979.856 56.26 981.619 55.03 982.439 53.308L983.054 53.595C982.152 55.563 980.143 56.916 977.806 56.916C976.617 56.916 975.51 56.547 974.608 55.932L970.18 58.638C972.107 60.606 974.813 61.836 977.806 61.836C982.07 61.836 985.801 59.294 987.523 55.645L988.097 55.932C986.293 59.827 982.357 62.492 977.806 62.492C971.533 62.492 966.449 57.408 966.449 51.135ZM967.105 51.135C967.105 52.324 967.31 53.431 967.638 54.497L972.066 51.791C972.025 51.586 972.025 51.34 972.025 51.135C972.025 47.937 974.608 45.354 977.806 45.354C978.995 45.354 980.143 45.723 981.045 46.338L985.432 43.673C983.505 41.664 980.799 40.434 977.806 40.434C971.902 40.434 967.105 45.231 967.105 51.135ZM967.884 55.112C968.335 56.219 968.95 57.244 969.729 58.146L974.034 55.522C973.132 54.743 972.476 53.677 972.189 52.488L967.884 55.112ZM972.681 51.135V51.422L980.43 46.707C979.651 46.256 978.749 46.01 977.806 46.01C974.977 46.01 972.681 48.306 972.681 51.135ZM972.763 52.16C973.009 53.349 973.706 54.415 974.649 55.153L982.849 50.151C982.603 48.962 981.947 47.896 981.004 47.117L972.763 52.16ZM981.619 46.789C982.521 47.568 983.177 48.593 983.423 49.823L987.769 47.158C987.318 46.051 986.662 45.067 985.924 44.165L981.619 46.789ZM990.541 62V40.27H991.197V46.461C992.099 44.124 993.862 42.197 996.117 41.09V40.27H996.773V40.762C997.921 40.311 999.151 40.065 1000.46 40.065C1005.92 40.065 1010.39 44.534 1010.39 49.987V62H1009.73V49.987C1009.73 44.903 1005.55 40.721 1000.46 40.721C999.151 40.721 997.921 41.008 996.773 41.5V47.691C997.552 46.461 998.905 45.641 1000.46 45.641C1002.84 45.641 1004.81 47.609 1004.81 49.987V62H1004.15V49.987C1004.15 47.978 1002.47 46.297 1000.46 46.297C998.454 46.297 996.773 47.978 996.773 49.987V62H996.117V41.828C993.206 43.386 991.197 46.461 991.197 49.987V62H990.541ZM1015.89 40.926H1012.65V40.27H1015.89V33.3H1016.55V40.27H1021.47V33.3H1022.13V40.27H1025.36V40.926H1022.13V45.846H1025.36V46.502H1022.13V62H1021.47V46.502H1016.55V62H1015.89V46.502H1012.65V45.846H1015.89V40.926ZM1021.47 40.926H1016.55V45.846H1021.47V40.926ZM1050.68 56.26C1055.4 56.26 1059.29 52.365 1059.29 47.65C1059.29 42.935 1055.4 39.04 1050.68 39.04C1045.97 39.04 1042.07 42.935 1042.07 47.65C1042.07 52.365 1045.97 56.26 1050.68 56.26ZM1058.76 52.119L1062.16 55.973C1063.84 53.636 1064.87 50.766 1064.87 47.65C1064.87 39.819 1058.51 33.464 1050.68 33.464C1042.85 33.464 1036.5 39.819 1036.5 47.65C1036.5 55.481 1042.85 61.836 1050.68 61.836C1053.14 61.836 1055.48 61.221 1057.53 60.073L1054.17 56.219C1053.1 56.67 1051.91 56.916 1050.68 56.916C1045.64 56.916 1041.42 52.693 1041.42 47.65C1041.42 42.607 1045.64 38.384 1050.68 38.384C1055.72 38.384 1059.95 42.607 1059.95 47.65C1059.95 49.29 1059.5 50.807 1058.76 52.119ZM1054.78 55.932L1058.06 59.745C1059.33 59.048 1060.77 57.777 1061.75 56.506L1058.39 52.693C1057.57 54.005 1056.34 55.153 1054.78 55.932ZM1064.13 59.212L1062.2 56.998C1061.1 58.392 1059.66 59.581 1058.51 60.237L1060.4 62.451L1059.91 62.861L1057.94 60.565C1055.81 61.795 1053.31 62.492 1050.68 62.492C1042.52 62.492 1035.84 55.809 1035.84 47.65C1035.84 39.491 1042.52 32.808 1050.68 32.808C1058.84 32.808 1065.52 39.491 1065.52 47.65C1065.52 50.971 1064.42 54.005 1062.57 56.465L1064.62 58.802L1064.13 59.212ZM1088.21 40.27V62H1087.56V55.809C1086.66 58.146 1084.89 60.073 1082.64 61.18V62H1081.98V61.508C1080.83 61.959 1079.6 62.205 1078.29 62.205C1072.84 62.205 1068.37 57.736 1068.37 52.283V40.27H1069.03V52.283C1069.03 57.367 1073.21 61.549 1078.29 61.549C1079.6 61.549 1080.83 61.262 1081.98 60.77V54.579C1081.2 55.809 1079.85 56.629 1078.29 56.629C1075.91 56.629 1073.95 54.661 1073.95 52.283V40.27H1074.6V52.283C1074.6 54.292 1076.28 55.973 1078.29 55.973C1080.3 55.973 1081.98 54.292 1081.98 52.283V40.27H1082.64V60.442C1085.55 58.884 1087.56 55.809 1087.56 52.283V40.27H1088.21ZM1092.4 62V40.27H1093.06V62H1092.4ZM1098.63 40.27V62H1097.98V40.27H1098.63ZM1097.98 38.138V31.25H1098.63V38.138H1097.98ZM1093.06 31.25V38.138H1092.4V31.25H1093.06ZM1108.26 61.344H1118.84V62H1100.97L1109.12 46.502H1102.15V45.846H1109.45L1112.08 40.926H1102.15V40.27H1119.37L1111.22 55.768H1118.84V56.424H1110.89L1108.26 61.344ZM1110.48 55.768L1115.36 46.502H1109.86L1104.98 55.768H1110.48ZM1110.15 56.424H1104.66L1102.03 61.344H1107.53L1110.15 56.424ZM1115.68 45.846L1118.31 40.926H1112.81L1110.19 45.846H1115.68ZM1137.36 39.532V45.928H1140.27C1142.08 45.928 1143.47 44.534 1143.47 42.73C1143.47 40.926 1142.08 39.532 1140.27 39.532H1137.36ZM1137.36 38.876H1140.27C1142.41 38.876 1144.13 40.598 1144.13 42.73C1144.13 44.862 1142.41 46.584 1140.27 46.584H1137.36V51.504H1140.27C1145.19 51.504 1149.05 47.65 1149.05 42.73C1149.05 37.81 1145.19 33.956 1140.27 33.956H1137.36V38.876ZM1131.79 52.16V62H1131.13V33.3H1140.27C1145.52 33.3 1149.7 37.482 1149.7 42.73C1149.7 47.978 1145.52 52.16 1140.27 52.16H1137.36V62H1136.71V52.16H1131.79ZM1131.79 39.532V45.928H1136.71V39.532H1131.79ZM1136.71 33.956H1131.79V38.876H1136.71V33.956ZM1136.71 46.584H1131.79V51.504H1136.71V46.584ZM1158.04 62V42.689C1155.82 44.042 1153.12 46.83 1153.12 51.709V62H1152.46V40.27H1153.12V47.732C1154.14 44.903 1155.74 43.304 1158.04 41.951V40.27H1158.69V41.582C1160.33 40.762 1162.09 40.352 1163.82 40.352V41.008C1162.09 41.008 1160.29 41.459 1158.69 42.32V49.044C1159.63 47.199 1161.6 45.928 1163.82 45.928V46.584C1160.95 46.584 1158.69 48.88 1158.69 51.709V62H1158.04ZM1175.96 62.492C1169.69 62.492 1164.6 57.408 1164.6 51.135C1164.6 44.862 1169.69 39.778 1175.96 39.778C1182.23 39.778 1187.32 44.862 1187.32 51.135C1187.32 57.408 1182.23 62.492 1175.96 62.492ZM1175.96 61.836C1181.86 61.836 1186.66 57.039 1186.66 51.135C1186.66 45.231 1181.86 40.434 1175.96 40.434C1170.06 40.434 1165.26 45.231 1165.26 51.135C1165.26 57.039 1170.06 61.836 1175.96 61.836ZM1175.96 56.916C1172.76 56.916 1170.18 54.333 1170.18 51.135C1170.18 47.937 1172.76 45.354 1175.96 45.354C1179.16 45.354 1181.74 47.937 1181.74 51.135C1181.74 54.333 1179.16 56.916 1175.96 56.916ZM1175.96 56.26C1178.79 56.26 1181.08 53.964 1181.08 51.135C1181.08 48.306 1178.79 46.01 1175.96 46.01C1173.13 46.01 1170.83 48.306 1170.83 51.135C1170.83 53.964 1173.13 56.26 1175.96 56.26ZM1196.98 40.27V63.722C1196.98 67.699 1193.7 71.02 1189.72 71.02H1186.53V70.364H1189.72C1193.37 70.364 1196.32 67.371 1196.32 63.722V40.27H1196.98ZM1186.53 64.788H1189.72C1190.3 64.788 1190.75 64.296 1190.75 63.722V40.27H1191.4V63.722C1191.4 64.624 1190.71 65.444 1189.72 65.444H1186.53V64.788ZM1191.4 31.25V38.138H1190.75V31.25H1191.4ZM1196.32 38.138V31.25H1196.98V38.138H1196.32ZM1199.92 51.135C1199.92 44.862 1205 39.778 1211.27 39.778C1216.28 39.778 1220.5 42.976 1222.02 47.486L1208.69 55.563C1209.47 56.014 1210.33 56.26 1211.27 56.26C1213.32 56.26 1215.09 55.03 1215.91 53.308L1216.52 53.595C1215.62 55.563 1213.61 56.916 1211.27 56.916C1210.08 56.916 1208.98 56.547 1208.08 55.932L1203.65 58.638C1205.57 60.606 1208.28 61.836 1211.27 61.836C1215.54 61.836 1219.27 59.294 1220.99 55.645L1221.56 55.932C1219.76 59.827 1215.82 62.492 1211.27 62.492C1205 62.492 1199.92 57.408 1199.92 51.135ZM1200.57 51.135C1200.57 52.324 1200.78 53.431 1201.11 54.497L1205.53 51.791C1205.49 51.586 1205.49 51.34 1205.49 51.135C1205.49 47.937 1208.08 45.354 1211.27 45.354C1212.46 45.354 1213.61 45.723 1214.51 46.338L1218.9 43.673C1216.97 41.664 1214.27 40.434 1211.27 40.434C1205.37 40.434 1200.57 45.231 1200.57 51.135ZM1201.35 55.112C1201.8 56.219 1202.42 57.244 1203.2 58.146L1207.5 55.522C1206.6 54.743 1205.94 53.677 1205.66 52.488L1201.35 55.112ZM1206.15 51.135V51.422L1213.9 46.707C1213.12 46.256 1212.22 46.01 1211.27 46.01C1208.44 46.01 1206.15 48.306 1206.15 51.135ZM1206.23 52.16C1206.48 53.349 1207.17 54.415 1208.12 55.153L1216.32 50.151C1216.07 48.962 1215.41 47.896 1214.47 47.117L1206.23 52.16ZM1215.09 46.789C1215.99 47.568 1216.64 48.593 1216.89 49.823L1221.24 47.158C1220.79 46.051 1220.13 45.067 1219.39 44.165L1215.09 46.789ZM1234.87 45.846V46.502H1233.68C1231.18 46.502 1229.05 48.634 1229.05 51.135C1229.05 53.636 1231.18 55.768 1233.68 55.768H1234.87V56.424H1233.68C1230.81 56.424 1228.4 54.005 1228.4 51.135C1228.4 48.265 1230.81 45.846 1233.68 45.846H1234.87ZM1234.87 40.926H1233.68C1228.07 40.926 1223.48 45.518 1223.48 51.135C1223.48 56.752 1228.07 61.344 1233.68 61.344H1234.87V62H1233.68C1227.7 62 1222.82 57.121 1222.82 51.135C1222.82 45.149 1227.7 40.27 1233.68 40.27H1234.87V40.926ZM1240.39 40.926H1237.15V40.27H1240.39V33.3H1241.05V40.27H1245.97V33.3H1246.62V40.27H1249.86V40.926H1246.62V45.846H1249.86V46.502H1246.62V62H1245.97V46.502H1241.05V62H1240.39V46.502H1237.15V45.846H1240.39V40.926ZM1245.97 40.926H1241.05V45.846H1245.97V40.926ZM1260.75 41.746C1260.75 36.826 1264.77 32.849 1269.85 32.849C1273.79 32.849 1277.11 35.268 1278.38 38.671L1277.8 38.917C1276.62 35.719 1273.5 33.423 1269.85 33.464C1265.18 33.505 1261.36 37.154 1261.4 41.746C1261.45 45.6 1264.07 48.88 1267.72 49.7L1270.67 50.356C1272.15 50.684 1273.25 52.037 1273.25 53.554C1273.25 55.399 1271.7 56.875 1269.73 56.875C1268.05 56.875 1266.65 55.768 1266.28 54.292L1266.9 54.005C1267.14 55.276 1268.29 56.301 1269.73 56.26C1271.33 56.219 1272.56 55.03 1272.6 53.554C1272.64 52.324 1271.74 51.258 1270.47 50.971L1267.6 50.356C1263.58 49.495 1260.75 45.887 1260.75 41.746ZM1261.16 56.629L1261.77 56.342C1262.92 59.581 1266.04 61.877 1269.73 61.836C1274.4 61.795 1278.21 58.146 1278.17 53.554C1278.13 49.7 1275.51 46.42 1271.86 45.6L1268.91 44.944C1267.43 44.616 1266.32 43.263 1266.32 41.746C1266.32 39.901 1267.88 38.425 1269.85 38.425C1271.53 38.425 1272.93 39.491 1273.25 40.967L1272.68 41.254C1272.43 39.983 1271.24 38.999 1269.85 39.04C1268.25 39.081 1267.02 40.27 1266.98 41.746C1266.94 42.976 1267.84 44.042 1269.11 44.329L1271.98 44.944C1276 45.805 1278.83 49.413 1278.83 53.554C1278.83 58.474 1274.81 62.451 1269.73 62.451C1265.75 62.451 1262.43 60.032 1261.16 56.629ZM1283.64 40.926H1280.4V40.27H1283.64V33.3H1284.29V40.27H1289.21V33.3H1289.87V40.27H1293.11V40.926H1289.87V45.846H1293.11V46.502H1289.87V62H1289.21V46.502H1284.29V62H1283.64V46.502H1280.4V45.846H1283.64V40.926ZM1289.21 40.926H1284.29V45.846H1289.21V40.926ZM1311.59 42.115V60.155C1314.33 58.474 1316.51 55.071 1316.51 51.135C1316.51 47.199 1314.33 43.796 1311.59 42.115ZM1305.81 39.778C1307.65 39.778 1309.37 40.229 1310.93 41.008V40.27H1311.59V41.377C1313.88 42.648 1315.65 44.944 1316.51 47.322V40.27H1317.16V62H1316.51V54.907C1315.69 57.244 1313.88 59.663 1311.59 60.934V62H1310.93V61.262C1309.37 62.041 1307.65 62.492 1305.81 62.492C1299.53 62.492 1294.45 57.408 1294.45 51.135C1294.45 44.862 1299.53 39.778 1305.81 39.778ZM1305.81 61.836C1307.65 61.836 1309.41 61.385 1310.93 60.565V53.841C1309.95 55.645 1308.02 56.916 1305.81 56.916C1302.61 56.916 1300.02 54.333 1300.02 51.135C1300.02 47.937 1302.61 45.354 1305.81 45.354C1308.02 45.354 1309.95 46.625 1310.93 48.47V41.746C1309.41 40.926 1307.65 40.434 1305.81 40.434C1299.9 40.434 1295.1 45.231 1295.1 51.135C1295.1 57.039 1299.9 61.836 1305.81 61.836ZM1305.81 56.26C1308.68 56.26 1310.93 53.964 1310.93 51.135C1310.93 48.306 1308.68 46.01 1305.81 46.01C1302.98 46.01 1300.68 48.306 1300.68 51.135C1300.68 53.964 1302.98 56.26 1305.81 56.26ZM1323.39 40.926H1320.15V40.27H1323.39V33.3H1324.05V40.27H1328.97V33.3H1329.63V40.27H1332.86V40.926H1329.63V45.846H1332.86V46.502H1329.63V62H1328.97V46.502H1324.05V62H1323.39V46.502H1320.15V45.846H1323.39V40.926ZM1328.97 40.926H1324.05V45.846H1328.97V40.926ZM1334.21 51.135C1334.21 44.862 1339.29 39.778 1345.56 39.778C1350.57 39.778 1354.79 42.976 1356.31 47.486L1342.98 55.563C1343.76 56.014 1344.62 56.26 1345.56 56.26C1347.61 56.26 1349.38 55.03 1350.2 53.308L1350.81 53.595C1349.91 55.563 1347.9 56.916 1345.56 56.916C1344.38 56.916 1343.27 56.547 1342.37 55.932L1337.94 58.638C1339.87 60.606 1342.57 61.836 1345.56 61.836C1349.83 61.836 1353.56 59.294 1355.28 55.645L1355.86 55.932C1354.05 59.827 1350.12 62.492 1345.56 62.492C1339.29 62.492 1334.21 57.408 1334.21 51.135ZM1334.86 51.135C1334.86 52.324 1335.07 53.431 1335.4 54.497L1339.82 51.791C1339.78 51.586 1339.78 51.34 1339.78 51.135C1339.78 47.937 1342.37 45.354 1345.56 45.354C1346.75 45.354 1347.9 45.723 1348.8 46.338L1353.19 43.673C1351.26 41.664 1348.56 40.434 1345.56 40.434C1339.66 40.434 1334.86 45.231 1334.86 51.135ZM1335.64 55.112C1336.09 56.219 1336.71 57.244 1337.49 58.146L1341.79 55.522C1340.89 54.743 1340.23 53.677 1339.95 52.488L1335.64 55.112ZM1340.44 51.135V51.422L1348.19 46.707C1347.41 46.256 1346.51 46.01 1345.56 46.01C1342.74 46.01 1340.44 48.306 1340.44 51.135ZM1340.52 52.16C1340.77 53.349 1341.46 54.415 1342.41 55.153L1350.61 50.151C1350.36 48.962 1349.71 47.896 1348.76 47.117L1340.52 52.16ZM1349.38 46.789C1350.28 47.568 1350.94 48.593 1351.18 49.823L1355.53 47.158C1355.08 46.051 1354.42 45.067 1353.68 44.165L1349.38 46.789ZM1385.44 55.522L1382.82 62H1382.16L1375.15 44.698L1372.12 62H1371.46L1374.7 43.55L1371.05 34.448L1366.21 62H1365.56L1370.6 33.3H1371.25L1374.9 42.402L1376.5 33.3H1377.16L1385.44 53.882L1393.72 33.3H1394.38L1395.98 42.361L1399.63 33.3H1400.28L1405.33 62H1404.67L1399.83 34.448L1396.18 43.509L1399.42 62H1398.77L1395.73 44.616L1388.72 62H1388.06L1385.44 55.522ZM1388.39 61.18L1395.53 43.468L1393.93 34.448L1385.77 54.702L1388.39 61.18ZM1385.11 54.702L1376.95 34.448L1375.35 43.55L1382.49 61.18L1385.11 54.702ZM1423.7 42.115V60.155C1426.44 58.474 1428.62 55.071 1428.62 51.135C1428.62 47.199 1426.44 43.796 1423.7 42.115ZM1417.92 39.778C1419.76 39.778 1421.48 40.229 1423.04 41.008V40.27H1423.7V41.377C1425.99 42.648 1427.76 44.944 1428.62 47.322V40.27H1429.27V62H1428.62V54.907C1427.8 57.244 1425.99 59.663 1423.7 60.934V62H1423.04V61.262C1421.48 62.041 1419.76 62.492 1417.92 62.492C1411.64 62.492 1406.56 57.408 1406.56 51.135C1406.56 44.862 1411.64 39.778 1417.92 39.778ZM1417.92 61.836C1419.76 61.836 1421.52 61.385 1423.04 60.565V53.841C1422.06 55.645 1420.13 56.916 1417.92 56.916C1414.72 56.916 1412.13 54.333 1412.13 51.135C1412.13 47.937 1414.72 45.354 1417.92 45.354C1420.13 45.354 1422.06 46.625 1423.04 48.47V41.746C1421.52 40.926 1419.76 40.434 1417.92 40.434C1412.01 40.434 1407.21 45.231 1407.21 51.135C1407.21 57.039 1412.01 61.836 1417.92 61.836ZM1417.92 56.26C1420.79 56.26 1423.04 53.964 1423.04 51.135C1423.04 48.306 1420.79 46.01 1417.92 46.01C1415.09 46.01 1412.79 48.306 1412.79 51.135C1412.79 53.964 1415.09 56.26 1417.92 56.26ZM1433.45 62V40.27H1434.11V46.461C1435.01 44.124 1436.77 42.197 1439.03 41.09V40.27H1439.69V40.762C1440.83 40.311 1442.06 40.065 1443.38 40.065C1448.83 40.065 1453.3 44.534 1453.3 49.987V62H1452.64V49.987C1452.64 44.903 1448.46 40.721 1443.38 40.721C1442.06 40.721 1440.83 41.008 1439.69 41.5V47.691C1440.46 46.461 1441.82 45.641 1443.38 45.641C1445.75 45.641 1447.72 47.609 1447.72 49.987V62H1447.07V49.987C1447.07 47.978 1445.38 46.297 1443.38 46.297C1441.37 46.297 1439.69 47.978 1439.69 49.987V62H1439.03V41.828C1436.12 43.386 1434.11 46.461 1434.11 49.987V62H1433.45ZM1473.06 42.115V60.155C1475.81 58.474 1477.98 55.071 1477.98 51.135C1477.98 47.199 1475.81 43.796 1473.06 42.115ZM1467.28 39.778C1469.13 39.778 1470.85 40.229 1472.41 41.008V40.27H1473.06V41.377C1475.36 42.648 1477.12 44.944 1477.98 47.322V40.27H1478.64V62H1477.98V54.907C1477.16 57.244 1475.36 59.663 1473.06 60.934V62H1472.41V61.262C1470.85 62.041 1469.13 62.492 1467.28 62.492C1461.01 62.492 1455.93 57.408 1455.93 51.135C1455.93 44.862 1461.01 39.778 1467.28 39.778ZM1467.28 61.836C1469.13 61.836 1470.89 61.385 1472.41 60.565V53.841C1471.42 55.645 1469.5 56.916 1467.28 56.916C1464.09 56.916 1461.5 54.333 1461.5 51.135C1461.5 47.937 1464.09 45.354 1467.28 45.354C1469.5 45.354 1471.42 46.625 1472.41 48.47V41.746C1470.89 40.926 1469.13 40.434 1467.28 40.434C1461.38 40.434 1456.58 45.231 1456.58 51.135C1456.58 57.039 1461.38 61.836 1467.28 61.836ZM1467.28 56.26C1470.15 56.26 1472.41 53.964 1472.41 51.135C1472.41 48.306 1470.15 46.01 1467.28 46.01C1464.45 46.01 1462.16 48.306 1462.16 51.135C1462.16 53.964 1464.45 56.26 1467.28 56.26ZM1481.63 51.135C1481.63 44.862 1486.72 39.778 1492.99 39.778C1494.83 39.778 1496.56 40.229 1498.11 41.008V40.27H1498.77V41.377C1501.07 42.648 1502.83 44.944 1503.69 47.322V40.27H1504.35V60.155C1504.35 66.428 1499.3 71.512 1492.99 71.512C1489.09 71.512 1485.65 69.503 1483.56 66.51L1484.13 66.182C1486.1 69.011 1489.34 70.856 1492.99 70.856C1498.98 70.856 1503.69 66.1 1503.69 60.155V54.907C1502.87 57.285 1501.03 59.663 1498.69 60.934C1498.28 63.722 1495.94 65.936 1492.99 65.936C1491.14 65.936 1489.46 65.034 1488.4 63.722L1488.97 63.394C1489.87 64.501 1491.39 65.28 1492.99 65.28C1495.45 65.28 1497.46 63.599 1497.99 61.344C1496.47 62.041 1494.75 62.492 1492.99 62.492C1486.72 62.492 1481.63 57.408 1481.63 51.135ZM1482.29 51.135C1482.29 57.039 1487.09 61.836 1492.99 61.836C1494.83 61.836 1496.56 61.385 1498.07 60.565C1498.11 60.278 1498.11 59.745 1498.11 59.212V53.841C1497.13 55.645 1495.2 56.916 1492.99 56.916C1489.79 56.916 1487.21 54.333 1487.21 51.135C1487.21 47.937 1489.79 45.354 1492.99 45.354C1495.2 45.354 1497.13 46.625 1498.11 48.47V41.746C1496.6 40.926 1494.83 40.434 1492.99 40.434C1487.09 40.434 1482.29 45.231 1482.29 51.135ZM1487.86 51.135C1487.86 53.964 1490.16 56.26 1492.99 56.26C1495.86 56.26 1498.11 53.964 1498.11 51.135C1498.11 48.306 1495.86 46.01 1492.99 46.01C1490.16 46.01 1487.86 48.306 1487.86 51.135ZM1498.77 42.115V60.155C1501.52 58.474 1503.69 55.071 1503.69 51.135C1503.69 47.199 1501.52 43.796 1498.77 42.115ZM1507.26 51.135C1507.26 44.862 1512.34 39.778 1518.61 39.778C1523.62 39.778 1527.84 42.976 1529.36 47.486L1516.03 55.563C1516.81 56.014 1517.67 56.26 1518.61 56.26C1520.66 56.26 1522.43 55.03 1523.25 53.308L1523.86 53.595C1522.96 55.563 1520.95 56.916 1518.61 56.916C1517.42 56.916 1516.32 56.547 1515.42 55.932L1510.99 58.638C1512.91 60.606 1515.62 61.836 1518.61 61.836C1522.88 61.836 1526.61 59.294 1528.33 55.645L1528.9 55.932C1527.1 59.827 1523.16 62.492 1518.61 62.492C1512.34 62.492 1507.26 57.408 1507.26 51.135ZM1507.91 51.135C1507.91 52.324 1508.12 53.431 1508.45 54.497L1512.87 51.791C1512.83 51.586 1512.83 51.34 1512.83 51.135C1512.83 47.937 1515.42 45.354 1518.61 45.354C1519.8 45.354 1520.95 45.723 1521.85 46.338L1526.24 43.673C1524.31 41.664 1521.61 40.434 1518.61 40.434C1512.71 40.434 1507.91 45.231 1507.91 51.135ZM1508.69 55.112C1509.14 56.219 1509.76 57.244 1510.54 58.146L1514.84 55.522C1513.94 54.743 1513.28 53.677 1513 52.488L1508.69 55.112ZM1513.49 51.135V51.422L1521.24 46.707C1520.46 46.256 1519.56 46.01 1518.61 46.01C1515.78 46.01 1513.49 48.306 1513.49 51.135ZM1513.57 52.16C1513.82 53.349 1514.51 54.415 1515.46 55.153L1523.66 50.151C1523.41 48.962 1522.75 47.896 1521.81 47.117L1513.57 52.16ZM1522.43 46.789C1523.33 47.568 1523.98 48.593 1524.23 49.823L1528.58 47.158C1528.13 46.051 1527.47 45.067 1526.73 44.165L1522.43 46.789ZM1531.35 62V40.27H1532V45.969C1532.91 43.714 1534.71 41.869 1536.92 40.885V40.27H1537.58V40.639C1538.52 40.311 1539.59 40.106 1540.66 40.106C1543.03 40.106 1545.21 41.008 1546.85 42.484C1548.49 41.008 1550.66 40.106 1553.04 40.106C1558.16 40.106 1562.34 44.288 1562.34 49.413V62H1561.69V49.413C1561.69 44.657 1557.79 40.762 1553.04 40.762C1550.86 40.762 1548.86 41.582 1547.34 42.935C1548.57 44.206 1549.43 45.805 1549.8 47.609C1550.41 46.461 1551.64 45.682 1553.04 45.682C1555.09 45.682 1556.77 47.363 1556.77 49.413V62H1556.11V49.413C1556.11 47.732 1554.72 46.338 1553.04 46.338C1551.36 46.338 1549.96 47.732 1549.96 49.413V62H1549.31V49.413C1549.31 47.076 1548.36 44.944 1546.85 43.386C1545.33 44.944 1544.39 47.076 1544.39 49.413V62H1543.73V49.413C1543.73 47.732 1542.34 46.338 1540.66 46.338C1538.97 46.338 1537.58 47.732 1537.58 49.413V62H1536.92V41.623C1534.01 43.017 1532 46.01 1532 49.413V62H1531.35ZM1537.58 41.336V47.322C1538.24 46.338 1539.38 45.682 1540.66 45.682C1542.05 45.682 1543.28 46.461 1543.89 47.609C1544.26 45.805 1545.12 44.206 1546.35 42.935C1544.84 41.582 1542.83 40.762 1540.66 40.762C1539.59 40.762 1538.52 40.967 1537.58 41.336ZM1564.99 51.135C1564.99 44.862 1570.08 39.778 1576.35 39.778C1581.35 39.778 1585.57 42.976 1587.09 47.486L1573.77 55.563C1574.55 56.014 1575.41 56.26 1576.35 56.26C1578.4 56.26 1580.16 55.03 1580.98 53.308L1581.6 53.595C1580.7 55.563 1578.69 56.916 1576.35 56.916C1575.16 56.916 1574.05 56.547 1573.15 55.932L1568.72 58.638C1570.65 60.606 1573.36 61.836 1576.35 61.836C1580.61 61.836 1584.34 59.294 1586.07 55.645L1586.64 55.932C1584.84 59.827 1580.9 62.492 1576.35 62.492C1570.08 62.492 1564.99 57.408 1564.99 51.135ZM1565.65 51.135C1565.65 52.324 1565.85 53.431 1566.18 54.497L1570.61 51.791C1570.57 51.586 1570.57 51.34 1570.57 51.135C1570.57 47.937 1573.15 45.354 1576.35 45.354C1577.54 45.354 1578.69 45.723 1579.59 46.338L1583.98 43.673C1582.05 41.664 1579.34 40.434 1576.35 40.434C1570.45 40.434 1565.65 45.231 1565.65 51.135ZM1566.43 55.112C1566.88 56.219 1567.49 57.244 1568.27 58.146L1572.58 55.522C1571.68 54.743 1571.02 53.677 1570.73 52.488L1566.43 55.112ZM1571.22 51.135V51.422L1578.97 46.707C1578.19 46.256 1577.29 46.01 1576.35 46.01C1573.52 46.01 1571.22 48.306 1571.22 51.135ZM1571.31 52.16C1571.55 53.349 1572.25 54.415 1573.19 55.153L1581.39 50.151C1581.15 48.962 1580.49 47.896 1579.55 47.117L1571.31 52.16ZM1580.16 46.789C1581.06 47.568 1581.72 48.593 1581.97 49.823L1586.31 47.158C1585.86 46.051 1585.21 45.067 1584.47 44.165L1580.16 46.789ZM1589.09 62V40.27H1589.74V46.461C1590.64 44.124 1592.41 42.197 1594.66 41.09V40.27H1595.32V40.762C1596.47 40.311 1597.7 40.065 1599.01 40.065C1604.46 40.065 1608.93 44.534 1608.93 49.987V62H1608.27V49.987C1608.27 44.903 1604.09 40.721 1599.01 40.721C1597.7 40.721 1596.47 41.008 1595.32 41.5V47.691C1596.1 46.461 1597.45 45.641 1599.01 45.641C1601.39 45.641 1603.35 47.609 1603.35 49.987V62H1602.7V49.987C1602.7 47.978 1601.02 46.297 1599.01 46.297C1597 46.297 1595.32 47.978 1595.32 49.987V62H1594.66V41.828C1591.75 43.386 1589.74 46.461 1589.74 49.987V62H1589.09ZM1614.44 40.926H1611.2V40.27H1614.44V33.3H1615.09V40.27H1620.01V33.3H1620.67V40.27H1623.91V40.926H1620.67V45.846H1623.91V46.502H1620.67V62H1620.01V46.502H1615.09V62H1614.44V46.502H1611.2V45.846H1614.44V40.926ZM1620.01 40.926H1615.09V45.846H1620.01V40.926ZM1649.23 56.26C1653.94 56.26 1657.84 52.365 1657.84 47.65C1657.84 42.935 1653.94 39.04 1649.23 39.04C1644.51 39.04 1640.62 42.935 1640.62 47.65C1640.62 52.365 1644.51 56.26 1649.23 56.26ZM1657.3 52.119L1660.71 55.973C1662.39 53.636 1663.41 50.766 1663.41 47.65C1663.41 39.819 1657.06 33.464 1649.23 33.464C1641.39 33.464 1635.04 39.819 1635.04 47.65C1635.04 55.481 1641.39 61.836 1649.23 61.836C1651.69 61.836 1654.02 61.221 1656.07 60.073L1652.71 56.219C1651.64 56.67 1650.46 56.916 1649.23 56.916C1644.18 56.916 1639.96 52.693 1639.96 47.65C1639.96 42.607 1644.18 38.384 1649.23 38.384C1654.27 38.384 1658.49 42.607 1658.49 47.65C1658.49 49.29 1658.04 50.807 1657.3 52.119ZM1653.33 55.932L1656.61 59.745C1657.88 59.048 1659.31 57.777 1660.3 56.506L1656.93 52.693C1656.11 54.005 1654.88 55.153 1653.33 55.932ZM1662.67 59.212L1660.75 56.998C1659.64 58.392 1658.2 59.581 1657.06 60.237L1658.94 62.451L1658.45 62.861L1656.48 60.565C1654.35 61.795 1651.85 62.492 1649.23 62.492C1641.07 62.492 1634.38 55.809 1634.38 47.65C1634.38 39.491 1641.07 32.808 1649.23 32.808C1657.38 32.808 1664.07 39.491 1664.07 47.65C1664.07 50.971 1662.96 54.005 1661.12 56.465L1663.17 58.802L1662.67 59.212ZM1686.76 40.27V62H1686.1V55.809C1685.2 58.146 1683.44 60.073 1681.18 61.18V62H1680.53V61.508C1679.38 61.959 1678.15 62.205 1676.84 62.205C1671.38 62.205 1666.91 57.736 1666.91 52.283V40.27H1667.57V52.283C1667.57 57.367 1671.75 61.549 1676.84 61.549C1678.15 61.549 1679.38 61.262 1680.53 60.77V54.579C1679.75 55.809 1678.39 56.629 1676.84 56.629C1674.46 56.629 1672.49 54.661 1672.49 52.283V40.27H1673.15V52.283C1673.15 54.292 1674.83 55.973 1676.84 55.973C1678.84 55.973 1680.53 54.292 1680.53 52.283V40.27H1681.18V60.442C1684.09 58.884 1686.1 55.809 1686.1 52.283V40.27H1686.76ZM1690.94 62V40.27H1691.6V62H1690.94ZM1697.18 40.27V62H1696.52V40.27H1697.18ZM1696.52 38.138V31.25H1697.18V38.138H1696.52ZM1691.6 31.25V38.138H1690.94V31.25H1691.6ZM1706.81 61.344H1717.39V62H1699.51L1707.67 46.502H1700.7V45.846H1708L1710.62 40.926H1700.7V40.27H1717.92L1709.76 55.768H1717.39V56.424H1709.43L1706.81 61.344ZM1709.02 55.768L1713.9 46.502H1708.41L1703.53 55.768H1709.02ZM1708.69 56.424H1703.2L1700.58 61.344H1706.07L1708.69 56.424ZM1714.23 45.846L1716.85 40.926H1711.36L1708.73 45.846H1714.23ZM1735.91 39.532V45.928H1738.82C1740.62 45.928 1742.02 44.534 1742.02 42.73C1742.02 40.926 1740.62 39.532 1738.82 39.532H1735.91ZM1735.91 38.876H1738.82C1740.95 38.876 1742.67 40.598 1742.67 42.73C1742.67 44.862 1740.95 46.584 1738.82 46.584H1735.91V51.504H1738.82C1743.74 51.504 1747.59 47.65 1747.59 42.73C1747.59 37.81 1743.74 33.956 1738.82 33.956H1735.91V38.876ZM1730.33 52.16V62H1729.67V33.3H1738.82C1744.07 33.3 1748.25 37.482 1748.25 42.73C1748.25 47.978 1744.07 52.16 1738.82 52.16H1735.91V62H1735.25V52.16H1730.33ZM1730.33 39.532V45.928H1735.25V39.532H1730.33ZM1735.25 33.956H1730.33V38.876H1735.25V33.956ZM1735.25 46.584H1730.33V51.504H1735.25V46.584ZM1756.58 62V42.689C1754.37 44.042 1751.66 46.83 1751.66 51.709V62H1751V40.27H1751.66V47.732C1752.68 44.903 1754.28 43.304 1756.58 41.951V40.27H1757.24V41.582C1758.88 40.762 1760.64 40.352 1762.36 40.352V41.008C1760.64 41.008 1758.83 41.459 1757.24 42.32V49.044C1758.18 47.199 1760.15 45.928 1762.36 45.928V46.584C1759.49 46.584 1757.24 48.88 1757.24 51.709V62H1756.58ZM1774.5 62.492C1768.23 62.492 1763.15 57.408 1763.15 51.135C1763.15 44.862 1768.23 39.778 1774.5 39.778C1780.78 39.778 1785.86 44.862 1785.86 51.135C1785.86 57.408 1780.78 62.492 1774.5 62.492ZM1774.5 61.836C1780.41 61.836 1785.2 57.039 1785.2 51.135C1785.2 45.231 1780.41 40.434 1774.5 40.434C1768.6 40.434 1763.8 45.231 1763.8 51.135C1763.8 57.039 1768.6 61.836 1774.5 61.836ZM1774.5 56.916C1771.31 56.916 1768.72 54.333 1768.72 51.135C1768.72 47.937 1771.31 45.354 1774.5 45.354C1777.7 45.354 1780.28 47.937 1780.28 51.135C1780.28 54.333 1777.7 56.916 1774.5 56.916ZM1774.5 56.26C1777.33 56.26 1779.63 53.964 1779.63 51.135C1779.63 48.306 1777.33 46.01 1774.5 46.01C1771.67 46.01 1769.38 48.306 1769.38 51.135C1769.38 53.964 1771.67 56.26 1774.5 56.26ZM1795.52 40.27V63.722C1795.52 67.699 1792.24 71.02 1788.27 71.02H1785.07V70.364H1788.27C1791.92 70.364 1794.87 67.371 1794.87 63.722V40.27H1795.52ZM1785.07 64.788H1788.27C1788.84 64.788 1789.29 64.296 1789.29 63.722V40.27H1789.95V63.722C1789.95 64.624 1789.25 65.444 1788.27 65.444H1785.07V64.788ZM1789.95 31.25V38.138H1789.29V31.25H1789.95ZM1794.87 38.138V31.25H1795.52V38.138H1794.87ZM1798.46 51.135C1798.46 44.862 1803.54 39.778 1809.82 39.778C1814.82 39.778 1819.04 42.976 1820.56 47.486L1807.23 55.563C1808.01 56.014 1808.87 56.26 1809.82 56.26C1811.87 56.26 1813.63 55.03 1814.45 53.308L1815.07 53.595C1814.16 55.563 1812.15 56.916 1809.82 56.916C1808.63 56.916 1807.52 56.547 1806.62 55.932L1802.19 58.638C1804.12 60.606 1806.82 61.836 1809.82 61.836C1814.08 61.836 1817.81 59.294 1819.53 55.645L1820.11 55.932C1818.3 59.827 1814.37 62.492 1809.82 62.492C1803.54 62.492 1798.46 57.408 1798.46 51.135ZM1799.12 51.135C1799.12 52.324 1799.32 53.431 1799.65 54.497L1804.08 51.791C1804.04 51.586 1804.04 51.34 1804.04 51.135C1804.04 47.937 1806.62 45.354 1809.82 45.354C1811.01 45.354 1812.15 45.723 1813.06 46.338L1817.44 43.673C1815.52 41.664 1812.81 40.434 1809.82 40.434C1803.91 40.434 1799.12 45.231 1799.12 51.135ZM1799.9 55.112C1800.35 56.219 1800.96 57.244 1801.74 58.146L1806.05 55.522C1805.14 54.743 1804.49 53.677 1804.2 52.488L1799.9 55.112ZM1804.69 51.135V51.422L1812.44 46.707C1811.66 46.256 1810.76 46.01 1809.82 46.01C1806.99 46.01 1804.69 48.306 1804.69 51.135ZM1804.77 52.16C1805.02 53.349 1805.72 54.415 1806.66 55.153L1814.86 50.151C1814.61 48.962 1813.96 47.896 1813.02 47.117L1804.77 52.16ZM1813.63 46.789C1814.53 47.568 1815.19 48.593 1815.43 49.823L1819.78 47.158C1819.33 46.051 1818.67 45.067 1817.94 44.165L1813.63 46.789ZM1833.42 45.846V46.502H1832.23C1829.73 46.502 1827.6 48.634 1827.6 51.135C1827.6 53.636 1829.73 55.768 1832.23 55.768H1833.42V56.424H1832.23C1829.36 56.424 1826.94 54.005 1826.94 51.135C1826.94 48.265 1829.36 45.846 1832.23 45.846H1833.42ZM1833.42 40.926H1832.23C1826.61 40.926 1822.02 45.518 1822.02 51.135C1822.02 56.752 1826.61 61.344 1832.23 61.344H1833.42V62H1832.23C1826.24 62 1821.36 57.121 1821.36 51.135C1821.36 45.149 1826.24 40.27 1832.23 40.27H1833.42V40.926ZM1838.94 40.926H1835.7V40.27H1838.94V33.3H1839.59V40.27H1844.51V33.3H1845.17V40.27H1848.41V40.926H1845.17V45.846H1848.41V46.502H1845.17V62H1844.51V46.502H1839.59V62H1838.94V46.502H1835.7V45.846H1838.94V40.926ZM1844.51 40.926H1839.59V45.846H1844.51V40.926Z" fill="white"/>
</g>
<defs>
<clipPath id="clip0_443_857">
<rect width="1940" height="343" fill="white"/>
</clipPath>
</defs>
</svg>
